<svg width="148" height="48" viewBox="0 0 148 48" fill="none" xmlns="http://www.w3.org/2000/svg">
<path d="M14.7273 47.5682C12.0758 47.5682 9.67424 46.8864 7.52273 45.5227C5.38636 44.1439 3.68939 42.1212 2.43182 39.4545C1.18939 36.7727 0.568182 33.4848 0.568182 29.5909C0.568182 25.5909 1.21212 22.2652 2.5 19.6136C3.78788 16.947 5.5 14.9545 7.63636 13.6364C9.78788 12.303 12.1439 11.6364 14.7045 11.6364C16.6591 11.6364 18.2879 11.9697 19.5909 12.6364C20.9091 13.2879 21.9697 14.1061 22.7727 15.0909C23.5909 16.0606 24.2121 17.0152 24.6364 17.9545H24.9318V0.454544H34.5909V47H25.0455V41.4091H24.6364C24.1818 42.3788 23.5379 43.3409 22.7045 44.2955C21.8864 45.2348 20.8182 46.0152 19.5 46.6364C18.197 47.2576 16.6061 47.5682 14.7273 47.5682ZM17.7955 39.8636C19.3561 39.8636 20.6742 39.4394 21.75 38.5909C22.8409 37.7273 23.6742 36.5227 24.25 34.9773C24.8409 33.4318 25.1364 31.6212 25.1364 29.5455C25.1364 27.4697 24.8485 25.6667 24.2727 24.1364C23.697 22.6061 22.8636 21.4242 21.7727 20.5909C20.6818 19.7576 19.3561 19.3409 17.7955 19.3409C16.2045 19.3409 14.8636 19.7727 13.7727 20.6364C12.6818 21.5 11.8561 22.697 11.2955 24.2273C10.7348 25.7576 10.4545 27.5303 10.4545 29.5455C10.4545 31.5758 10.7348 33.3712 11.2955 34.9318C11.8712 36.4773 12.697 37.6894 13.7727 38.5682C14.8636 39.4318 16.2045 39.8636 17.7955 39.8636ZM58.4602 47.6818C54.8693 47.6818 51.7784 46.9545 49.1875 45.5C46.6117 44.0303 44.6269 41.9545 43.233 39.2727C41.839 36.5758 41.142 33.3864 41.142 29.7045C41.142 26.1136 41.839 22.9621 43.233 20.25C44.6269 17.5379 46.589 15.4242 49.1193 13.9091C51.6648 12.3939 54.6496 11.6364 58.0739 11.6364C60.3769 11.6364 62.5208 12.0076 64.5057 12.75C66.5057 13.4773 68.2481 14.5758 69.733 16.0455C71.233 17.5152 72.3996 19.3636 73.233 21.5909C74.0663 23.803 74.483 26.3939 74.483 29.3636V32.0227H45.0057V26.0227H65.3693C65.3693 24.6288 65.0663 23.3939 64.4602 22.3182C63.8542 21.2424 63.0133 20.4015 61.9375 19.7955C60.8769 19.1742 59.642 18.8636 58.233 18.8636C56.7633 18.8636 55.4602 19.2045 54.3239 19.8864C53.2027 20.553 52.3239 21.4545 51.6875 22.5909C51.0511 23.7121 50.7254 24.9621 50.7102 26.3409V32.0455C50.7102 33.7727 51.0284 35.2652 51.6648 36.5227C52.3163 37.7803 53.233 38.75 54.4148 39.4318C55.5966 40.1136 56.9981 40.4545 58.6193 40.4545C59.6951 40.4545 60.6799 40.303 61.5739 40C62.4678 39.697 63.233 39.2424 63.8693 38.6364C64.5057 38.0303 64.9905 37.2879 65.3239 36.4091L74.2784 37C73.8239 39.1515 72.892 41.0303 71.483 42.6364C70.089 44.2273 68.286 45.4697 66.0739 46.3636C63.8769 47.2424 61.339 47.6818 58.4602 47.6818ZM112.409 12.0909L100.205 47H89.2955L77.0909 12.0909H87.3182L94.5682 37.0682H94.9318L102.159 12.0909H112.409ZM146.409 22.0455L137.545 22.5909C137.394 21.8333 137.068 21.1515 136.568 20.5455C136.068 19.9242 135.409 19.4318 134.591 19.0682C133.788 18.6894 132.826 18.5 131.705 18.5C130.205 18.5 128.939 18.8182 127.909 19.4545C126.879 20.0758 126.364 20.9091 126.364 21.9545C126.364 22.7879 126.697 23.4924 127.364 24.0682C128.03 24.6439 129.174 25.1061 130.795 25.4545L137.114 26.7273C140.508 27.4242 143.038 28.5455 144.705 30.0909C146.371 31.6364 147.205 33.6667 147.205 36.1818C147.205 38.4697 146.53 40.4773 145.182 42.2045C143.848 43.9318 142.015 45.2803 139.682 46.25C137.364 47.2045 134.689 47.6818 131.659 47.6818C127.038 47.6818 123.356 46.7197 120.614 44.7955C117.886 42.8561 116.288 40.2197 115.818 36.8864L125.341 36.3864C125.629 37.7955 126.326 38.8712 127.432 39.6136C128.538 40.3409 129.955 40.7045 131.682 40.7045C133.379 40.7045 134.742 40.3788 135.773 39.7273C136.818 39.0606 137.348 38.2045 137.364 37.1591C137.348 36.2803 136.977 35.5606 136.25 35C135.523 34.4242 134.402 33.9848 132.886 33.6818L126.841 32.4773C123.432 31.7955 120.894 30.6136 119.227 28.9318C117.576 27.25 116.75 25.1061 116.75 22.5C116.75 20.2576 117.356 18.3258 118.568 16.7045C119.795 15.0833 121.515 13.8333 123.727 12.9545C125.955 12.0758 128.561 11.6364 131.545 11.6364C135.955 11.6364 139.424 12.5682 141.955 14.4318C144.5 16.2955 145.985 18.8333 146.409 22.0455Z" fill="white"/>
</svg>
