<svg id="visual" viewBox="0 0 900 600" width="900" height="600" xmlns="http://www.w3.org/2000/svg" xmlns:xlink="http://www.w3.org/1999/xlink" version="1.1"><rect x="0" y="0" width="900" height="600" fill="#ffffff"></rect><path d="M0 434L16.7 438.2C33.3 442.3 66.7 450.7 100 452.8C133.3 455 166.7 451 200 445.8C233.3 440.7 266.7 434.3 300 430.2C333.3 426 366.7 424 400 423.7C433.3 423.3 466.7 424.7 500 434.2C533.3 443.7 566.7 461.3 600 464.8C633.3 468.3 666.7 457.7 700 449.2C733.3 440.7 766.7 434.3 800 429.8C833.3 425.3 866.7 422.7 883.3 421.3L900 420L900 601L883.3 601C866.7 601 833.3 601 800 601C766.7 601 733.3 601 700 601C666.7 601 633.3 601 600 601C566.7 601 533.3 601 500 601C466.7 601 433.3 601 400 601C366.7 601 333.3 601 300 601C266.7 601 233.3 601 200 601C166.7 601 133.3 601 100 601C66.7 601 33.3 601 16.7 601L0 601Z" fill="#0064f9" stroke-linecap="round" stroke-linejoin="miter"></path></svg>