<svg id="visual" viewBox="0 0 900 600" width="900" height="600" xmlns="http://www.w3.org/2000/svg" xmlns:xlink="http://www.w3.org/1999/xlink" version="1.1"><rect x="0" y="0" width="900" height="600" fill="#fff"></rect><defs><linearGradient id="grad1_0" x1="33.3%" y1="0%" x2="100%" y2="100%"><stop offset="20%" stop-color="#ffffff" stop-opacity="1"></stop><stop offset="80%" stop-color="#ffffff" stop-opacity="1"></stop></linearGradient></defs><defs><linearGradient id="grad2_0" x1="0%" y1="0%" x2="66.7%" y2="100%"><stop offset="20%" stop-color="#ffffff" stop-opacity="1"></stop><stop offset="80%" stop-color="#ffffff" stop-opacity="1"></stop></linearGradient></defs><g transform="translate(900, 0)"><path d="M0 243.4C-19.9 236.8 -39.8 230.3 -60.6 226C-81.3 221.8 -102.9 219.8 -121.7 210.8C-140.5 201.8 -156.5 185.8 -167.6 167.6C-178.7 149.4 -184.9 129 -191.4 110.5C-197.9 92 -204.8 75.3 -213.5 57.2C-222.2 39.1 -232.8 19.5 -243.4 0L0 0Z" fill="#004cff"></path></g><g transform="translate(0, 600)"><path d="M0 -243.4C20.1 -235.4 40.1 -227.4 59 -220.2C77.9 -213.1 95.7 -206.8 115.5 -200.1C135.3 -193.3 157.2 -186.2 172.1 -172.1C187 -158 195 -136.9 203.5 -117.5C212.1 -98.1 221.2 -80.4 228 -61.1C234.7 -41.8 239 -20.9 243.4 0L0 0Z" fill="#004cff"></path></g></svg>